<svg width="116" height="138" viewBox="0 0 116 138" fill="none" xmlns="http://www.w3.org/2000/svg">
<path d="M100.64 125.394C0.548859 146.819 -4.5698 -1.16278 100.64 23.2518C42.6403 -10.9777 -2.85963 32.5641 0.140248 79.5224C2.12333 110.564 33.8403 159.692 100.64 125.394Z" fill="#343434"/>
<circle cx="8.5" cy="8.5" r="8.5" transform="matrix(-1 0 0 1 25 0)" fill="#CA8A04"/>
<path d="M116 49.1554C90.8 14.7554 59.5 26.1554 47 36.1554C78.2 25.7554 93 41.4888 96.5 50.6554L116 49.1554Z" fill="#36ACCC"/>
<path d="M116 97.5C90.8 131.9 59.5 120.5 47 110.5C78.2 120.9 93 105.167 96.5 96L116 97.5Z" fill="#CA8A04"/>
</svg>
